<svg xmlns="http://www.w3.org/2000/svg" width="805" height="420"><rect width="805" height="420" x="0" y="0" fill="#FFFFFF" id="background"/><g id="viz"><g transform="translate(0,0)"><g transform="translate(100,20)"><g class="bars"><rect id="undefined - Ciro y los Persas" x="0" y="0.9973753280839901" height="36.90288713910761" width="643.9" fill="#0072b2"/><rect id="undefined - Los Piojos" x="0" y="38.89763779527559" height="36.90288713910761" width="620.866875" fill="#0072b2"/><rect id="undefined - Duki" x="0" y="76.7979002624672" height="36.90288713910761" width="307.05125" fill="#0072b2"/><rect id="undefined - Divididos" x="0" y="114.6981627296588" height="36.90288713910761" width="251.65187500000002" fill="#0072b2"/><rect id="undefined - Bersuit Vergarabat" x="0" y="152.5984251968504" height="36.90288713910761" width="219.20000000000002" fill="#0072b2"/><rect id="undefined - Eladio Carrion" x="0" y="190.498687664042" height="36.90288713910761" width="177.07250000000002" fill="#0072b2"/><rect id="undefined - The Beatles" x="0" y="228.39895013123362" height="36.90288713910761" width="159.176875" fill="#0072b2"/><rect id="undefined - Imagine Dragons" x="0" y="266.2992125984252" height="36.90288713910761" width="140.339375" fill="#0072b2"/><rect id="undefined - Arctic Monkeys" x="0" y="304.1994750656168" height="36.90288713910761" width="134.43125" fill="#0072b2"/><rect id="undefined - Feid" x="0" y="342.09973753280843" height="36.90288713910761" width="129.550625" fill="#0072b2"/></g><g id="xAxis" transform="translate(0,380)" fill="none" font-size="10" font-family="sans-serif" text-anchor="middle"><path class="domain" stroke="currentColor" d="M0,6V0H685V6"/><g class="tick" opacity="1" transform="translate(0,0)"><line stroke="currentColor" y2="6"/><text fill="currentColor" y="9" dy="0.71em">0</text></g><g class="tick" opacity="1" transform="translate(85.625,0)"><line stroke="currentColor" y2="6"/><text fill="currentColor" y="9" dy="0.71em">1,000</text></g><g class="tick" opacity="1" transform="translate(171.25,0)"><line stroke="currentColor" y2="6"/><text fill="currentColor" y="9" dy="0.71em">2,000</text></g><g class="tick" opacity="1" transform="translate(256.875,0)"><line stroke="currentColor" y2="6"/><text fill="currentColor" y="9" dy="0.71em">3,000</text></g><g class="tick" opacity="1" transform="translate(342.5,0)"><line stroke="currentColor" y2="6"/><text fill="currentColor" y="9" dy="0.71em">4,000</text></g><g class="tick" opacity="1" transform="translate(428.125,0)"><line stroke="currentColor" y2="6"/><text fill="currentColor" y="9" dy="0.71em">5,000</text></g><g class="tick" opacity="1" transform="translate(513.75,0)"><line stroke="currentColor" y2="6"/><text fill="currentColor" y="9" dy="0.71em">6,000</text></g><g class="tick" opacity="1" transform="translate(599.375,0)"><line stroke="currentColor" y2="6"/><text fill="currentColor" y="9" dy="0.71em">7,000</text></g><g class="tick" opacity="1" transform="translate(685,0)"><line stroke="currentColor" y2="6"/><text fill="currentColor" y="9" dy="0.71em">8,000</text></g><text font-family="Arial, sans-serif" font-size="10" x="685" dy="-5" fill="black" font-weight="bold" text-anchor="end">Reproducciones</text></g><g id="yAxis" transform="translate(0,0)" fill="none" font-size="10" font-family="sans-serif" text-anchor="end"><path class="domain" stroke="currentColor" d="M0,0V380"/><g class="tick" opacity="1" transform="translate(0,19.448818897637796)"><line stroke="currentColor" x2="-6"/><text fill="currentColor" x="-9" dy="0.32em">Ciro y los Persas</text></g><g class="tick" opacity="1" transform="translate(0,57.3490813648294)"><line stroke="currentColor" x2="-6"/><text fill="currentColor" x="-9" dy="0.32em">Los Piojos</text></g><g class="tick" opacity="1" transform="translate(0,95.249343832021)"><line stroke="currentColor" x2="-6"/><text fill="currentColor" x="-9" dy="0.32em">Duki</text></g><g class="tick" opacity="1" transform="translate(0,133.14960629921262)"><line stroke="currentColor" x2="-6"/><text fill="currentColor" x="-9" dy="0.32em">Divididos</text></g><g class="tick" opacity="1" transform="translate(0,171.04986876640422)"><line stroke="currentColor" x2="-6"/><text fill="currentColor" x="-9" dy="0.32em">Bersuit Vergarabat</text></g><g class="tick" opacity="1" transform="translate(0,208.9501312335958)"><line stroke="currentColor" x2="-6"/><text fill="currentColor" x="-9" dy="0.32em">Eladio Carrion</text></g><g class="tick" opacity="1" transform="translate(0,246.85039370078744)"><line stroke="currentColor" x2="-6"/><text fill="currentColor" x="-9" dy="0.32em">The Beatles</text></g><g class="tick" opacity="1" transform="translate(0,284.750656167979)"><line stroke="currentColor" x2="-6"/><text fill="currentColor" x="-9" dy="0.32em">Imagine Dragons</text></g><g class="tick" opacity="1" transform="translate(0,322.6509186351706)"><line stroke="currentColor" x2="-6"/><text fill="currentColor" x="-9" dy="0.32em">Arctic Monkeys</text></g><g class="tick" opacity="1" transform="translate(0,360.55118110236225)"><line stroke="currentColor" x2="-6"/><text fill="currentColor" x="-9" dy="0.32em">Feid</text></g><text font-family="Arial, sans-serif" font-size="10" x="4" fill="black" font-weight="bold" text-anchor="start" dominant-baseline="hanging"></text></g></g></g></g></svg>