<svg xmlns="http://www.w3.org/2000/svg" width="805" height="420"><rect width="805" height="420" x="0" y="0" fill="#FFFFFF" id="background"/><g id="viz"><g transform="translate(0,0)"><g transform="translate(140,20)"><g class="bars"><rect id="undefined - Los Piojos" x="0" y="0.9973753280839901" height="36.90288713910761" width="627.1831153846153" fill="#0072b2"/><rect id="undefined - Ciro y los Persas" x="0" y="38.89763779527559" height="36.90288713910761" width="595.26405" fill="#0072b2"/><rect id="undefined - Duki" x="0" y="76.7979002624672" height="36.90288713910761" width="395.5968576923077" fill="#0072b2"/><rect id="undefined - Divididos" x="0" y="114.6981627296588" height="36.90288713910761" width="307.1261769230769" fill="#0072b2"/><rect id="undefined - Eladio Carrion" x="0" y="152.5984251968504" height="36.90288713910761" width="267.52119230769233" fill="#0072b2"/><rect id="undefined - Bersuit Vergarabat" x="0" y="190.498687664042" height="36.90288713910761" width="200.63518846153846" fill="#0072b2"/><rect id="undefined - Bad Bunny" x="0" y="228.39895013123362" height="36.90288713910761" width="184.39111153846153" fill="#0072b2"/><rect id="undefined - Las Pastillas del Abuelo" x="0" y="266.2992125984252" height="36.90288713910761" width="183.48463846153845" fill="#0072b2"/><rect id="undefined - Feid" x="0" y="304.1994750656168" height="36.90288713910761" width="178.21846153846153" fill="#0072b2"/><rect id="undefined - Imagine Dragons" x="0" y="342.09973753280843" height="36.90288713910761" width="170.8947346153846" fill="#0072b2"/></g><g id="xAxis" transform="translate(0,380)" fill="none" font-size="10" font-family="sans-serif" text-anchor="middle"><path class="domain" stroke="currentColor" d="M0,6V0H645V6"/><g class="tick" opacity="1" transform="translate(0,0)"><line stroke="currentColor" y2="6"/><text fill="currentColor" y="9" dy="0.71em">0</text></g><g class="tick" opacity="1" transform="translate(49.61538461538462,0)"><line stroke="currentColor" y2="6"/><text fill="currentColor" y="9" dy="0.71em">1,000</text></g><g class="tick" opacity="1" transform="translate(99.23076923076924,0)"><line stroke="currentColor" y2="6"/><text fill="currentColor" y="9" dy="0.71em">2,000</text></g><g class="tick" opacity="1" transform="translate(148.84615384615387,0)"><line stroke="currentColor" y2="6"/><text fill="currentColor" y="9" dy="0.71em">3,000</text></g><g class="tick" opacity="1" transform="translate(198.46153846153848,0)"><line stroke="currentColor" y2="6"/><text fill="currentColor" y="9" dy="0.71em">4,000</text></g><g class="tick" opacity="1" transform="translate(248.0769230769231,0)"><line stroke="currentColor" y2="6"/><text fill="currentColor" y="9" dy="0.71em">5,000</text></g><g class="tick" opacity="1" transform="translate(297.69230769230774,0)"><line stroke="currentColor" y2="6"/><text fill="currentColor" y="9" dy="0.71em">6,000</text></g><g class="tick" opacity="1" transform="translate(347.30769230769226,0)"><line stroke="currentColor" y2="6"/><text fill="currentColor" y="9" dy="0.71em">7,000</text></g><g class="tick" opacity="1" transform="translate(396.92307692307696,0)"><line stroke="currentColor" y2="6"/><text fill="currentColor" y="9" dy="0.71em">8,000</text></g><g class="tick" opacity="1" transform="translate(446.53846153846155,0)"><line stroke="currentColor" y2="6"/><text fill="currentColor" y="9" dy="0.71em">9,000</text></g><g class="tick" opacity="1" transform="translate(496.1538461538462,0)"><line stroke="currentColor" y2="6"/><text fill="currentColor" y="9" dy="0.71em">10,000</text></g><g class="tick" opacity="1" transform="translate(545.7692307692307,0)"><line stroke="currentColor" y2="6"/><text fill="currentColor" y="9" dy="0.71em">11,000</text></g><g class="tick" opacity="1" transform="translate(595.3846153846155,0)"><line stroke="currentColor" y2="6"/><text fill="currentColor" y="9" dy="0.71em">12,000</text></g><g class="tick" opacity="1" transform="translate(645,0)"><line stroke="currentColor" y2="6"/><text fill="currentColor" y="9" dy="0.71em">13,000</text></g><text font-family="Arial, sans-serif" font-size="10" x="645" dy="-5" fill="black" font-weight="bold" text-anchor="end">Minutos</text></g><g id="yAxis" transform="translate(0,0)" fill="none" font-size="10" font-family="sans-serif" text-anchor="end"><path class="domain" stroke="currentColor" d="M0,0V380"/><g class="tick" opacity="1" transform="translate(0,19.448818897637796)"><line stroke="currentColor" x2="-6"/><text fill="currentColor" x="-9" dy="0.32em">Los Piojos</text></g><g class="tick" opacity="1" transform="translate(0,57.3490813648294)"><line stroke="currentColor" x2="-6"/><text fill="currentColor" x="-9" dy="0.32em">Ciro y los Persas</text></g><g class="tick" opacity="1" transform="translate(0,95.249343832021)"><line stroke="currentColor" x2="-6"/><text fill="currentColor" x="-9" dy="0.32em">Duki</text></g><g class="tick" opacity="1" transform="translate(0,133.14960629921262)"><line stroke="currentColor" x2="-6"/><text fill="currentColor" x="-9" dy="0.32em">Divididos</text></g><g class="tick" opacity="1" transform="translate(0,171.04986876640422)"><line stroke="currentColor" x2="-6"/><text fill="currentColor" x="-9" dy="0.32em">Eladio Carrion</text></g><g class="tick" opacity="1" transform="translate(0,208.9501312335958)"><line stroke="currentColor" x2="-6"/><text fill="currentColor" x="-9" dy="0.32em">Bersuit Vergarabat</text></g><g class="tick" opacity="1" transform="translate(0,246.85039370078744)"><line stroke="currentColor" x2="-6"/><text fill="currentColor" x="-9" dy="0.32em">Bad Bunny</text></g><g class="tick" opacity="1" transform="translate(0,284.750656167979)"><line stroke="currentColor" x2="-6"/><text fill="currentColor" x="-9" dy="0.32em">Las Pastillas del Abuelo</text></g><g class="tick" opacity="1" transform="translate(0,322.6509186351706)"><line stroke="currentColor" x2="-6"/><text fill="currentColor" x="-9" dy="0.32em">Feid</text></g><g class="tick" opacity="1" transform="translate(0,360.55118110236225)"><line stroke="currentColor" x2="-6"/><text fill="currentColor" x="-9" dy="0.32em">Imagine Dragons</text></g><text font-family="Arial, sans-serif" font-size="10" x="4" fill="black" font-weight="bold" text-anchor="start" dominant-baseline="hanging"></text></g></g></g></g></svg>
