<svg xmlns="http://www.w3.org/2000/svg" width="925" height="420"><rect width="925" height="420" x="0" y="0" fill="#FFFFFF" id="background"/><g id="viz"><g transform="translate(0,0)"><g transform="translate(250,20)"><g class="bars"><rect id="undefined - Tan Solo" x="0" y="0.9973753280839901" height="36.90288713910761" width="506.0714285714286" fill="#009e73"/><rect id="undefined - Antes y Después" x="0" y="38.89763779527559" height="36.90288713910761" width="504.51428571428573" fill="#e69f00"/><rect id="undefined - Como Alí" x="0" y="76.7979002624672" height="36.90288713910761" width="502.95714285714286" fill="#e69f00"/><rect id="undefined - Astros" x="0" y="114.6981627296588" height="36.90288713910761" width="495.1714285714286" fill="#e69f00"/><rect id="undefined - Todo Pasa" x="0" y="152.5984251968504" height="36.90288713910761" width="464.0285714285714" fill="#009e73"/><rect id="undefined - El Farolito" x="0" y="190.498687664042" height="36.90288713910761" width="451.5714285714286" fill="#009e73"/><rect id="undefined - Genius" x="0" y="228.39895013123362" height="36.90288713910761" width="442.2285714285714" fill="#e69f00"/><rect id="undefined - Insisto" x="0" y="266.2992125984252" height="36.90288713910761" width="439.1142857142857" fill="#e69f00"/><rect id="undefined - Verano del 92" x="0" y="304.1994750656168" height="36.90288713910761" width="431.3285714285715" fill="#009e73"/><rect id="undefined - El Tiempo No Para - Live In Buenos Aires / 2001" x="0" y="342.09973753280843" height="36.90288713910761" width="429.7714285714286" fill="#0072b2"/></g><g id="xAxis" transform="translate(0,380)" fill="none" font-size="10" font-family="sans-serif" text-anchor="middle"><path class="domain" stroke="currentColor" d="M0,6V0H545V6"/><g class="tick" opacity="1" transform="translate(0,0)"><line stroke="currentColor" y2="6"/><text fill="currentColor" y="9" dy="0.71em">0</text></g><g class="tick" opacity="1" transform="translate(77.85714285714285,0)"><line stroke="currentColor" y2="6"/><text fill="currentColor" y="9" dy="0.71em">50</text></g><g class="tick" opacity="1" transform="translate(155.7142857142857,0)"><line stroke="currentColor" y2="6"/><text fill="currentColor" y="9" dy="0.71em">100</text></g><g class="tick" opacity="1" transform="translate(233.57142857142856,0)"><line stroke="currentColor" y2="6"/><text fill="currentColor" y="9" dy="0.71em">150</text></g><g class="tick" opacity="1" transform="translate(311.4285714285714,0)"><line stroke="currentColor" y2="6"/><text fill="currentColor" y="9" dy="0.71em">200</text></g><g class="tick" opacity="1" transform="translate(389.2857142857143,0)"><line stroke="currentColor" y2="6"/><text fill="currentColor" y="9" dy="0.71em">250</text></g><g class="tick" opacity="1" transform="translate(467.1428571428571,0)"><line stroke="currentColor" y2="6"/><text fill="currentColor" y="9" dy="0.71em">300</text></g><g class="tick" opacity="1" transform="translate(545,0)"><line stroke="currentColor" y2="6"/><text fill="currentColor" y="9" dy="0.71em">350</text></g><text font-family="Arial, sans-serif" font-size="10" x="545" dy="-5" fill="black" font-weight="bold" text-anchor="end">Reproducciones</text></g><g id="yAxis" transform="translate(0,0)" fill="none" font-size="10" font-family="sans-serif" text-anchor="end"><path class="domain" stroke="currentColor" d="M0,0V380"/><g class="tick" opacity="1" transform="translate(0,19.448818897637796)"><line stroke="currentColor" x2="-6"/><text fill="currentColor" x="-9" dy="0.32em">Tan Solo</text></g><g class="tick" opacity="1" transform="translate(0,57.3490813648294)"><line stroke="currentColor" x2="-6"/><text fill="currentColor" x="-9" dy="0.32em">Antes y Después</text></g><g class="tick" opacity="1" transform="translate(0,95.249343832021)"><line stroke="currentColor" x2="-6"/><text fill="currentColor" x="-9" dy="0.32em">Como Alí</text></g><g class="tick" opacity="1" transform="translate(0,133.14960629921262)"><line stroke="currentColor" x2="-6"/><text fill="currentColor" x="-9" dy="0.32em">Astros</text></g><g class="tick" opacity="1" transform="translate(0,171.04986876640422)"><line stroke="currentColor" x2="-6"/><text fill="currentColor" x="-9" dy="0.32em">Todo Pasa</text></g><g class="tick" opacity="1" transform="translate(0,208.9501312335958)"><line stroke="currentColor" x2="-6"/><text fill="currentColor" x="-9" dy="0.32em">El Farolito</text></g><g class="tick" opacity="1" transform="translate(0,246.85039370078744)"><line stroke="currentColor" x2="-6"/><text fill="currentColor" x="-9" dy="0.32em">Genius</text></g><g class="tick" opacity="1" transform="translate(0,284.750656167979)"><line stroke="currentColor" x2="-6"/><text fill="currentColor" x="-9" dy="0.32em">Insisto</text></g><g class="tick" opacity="1" transform="translate(0,322.6509186351706)"><line stroke="currentColor" x2="-6"/><text fill="currentColor" x="-9" dy="0.32em">Verano del 92</text></g><g class="tick" opacity="1" transform="translate(0,360.55118110236225)"><line stroke="currentColor" x2="-6"/><text fill="currentColor" x="-9" dy="0.32em">El Tiempo No Para - Live In Buenos Aires / 2001</text></g><text font-family="Arial, sans-serif" font-size="10" x="4" fill="black" font-weight="bold" text-anchor="start" dominant-baseline="hanging"/></g></g></g></g><g id="legend" transform="translate(805,20)"><g transform="translate(5,0)"><g class="legendColor" transform="translate(0,0)"><g class="legendCells" transform="translate(0,15.5)"><g class="cell" transform="translate(0, 0)"><rect class="swatch" height="15" width="15" style="fill: rgb(0, 114, 178);"/><text class="label" transform="translate( 20, 12.5)" font-family="&quot;Arial&quot;, sans-serif" font-size="10px"><tspan x="0" dy="0em">Bersuit</tspan><tspan x="0" dy="1.2em">Vergarabat</tspan></text></g><g class="cell" transform="translate(0, 36.10000038146973)"><rect class="swatch" height="15" width="15" style="fill: rgb(230, 159, 0);"/><text class="label" transform="translate( 20, 12.5)" font-family="&quot;Arial&quot;, sans-serif" font-size="10px"><tspan x="0" dy="0em">Ciro y los</tspan><tspan x="0" dy="1.2em">Persas</tspan></text></g><g class="cell" transform="translate(0, 72.20000076293945)"><rect class="swatch" height="15" width="15" style="fill: rgb(0, 158, 115);"/><text class="label" transform="translate( 20, 12.5)" font-family="&quot;Arial&quot;, sans-serif" font-size="10px"><tspan x="0" dy="0em">Los Piojos</tspan></text></g></g><text class="legendTitle" font-family="&quot;Arial&quot;, sans-serif" font-size="12px" font-weight="bold"><tspan x="0" dy="0em">Artista</tspan></text></g></g></g></svg>